<svg width="24" height="24" viewBox="0 0 24 24" fill="none" xmlns="http://www.w3.org/2000/svg">
<path d="M10 12C12.21 12 14 10.21 14 8C14 5.79 12.21 4 10 4C7.79 4 6 5.79 6 8C6 10.21 7.79 12 10 12ZM10 6C11.1 6 12 6.9 12 8C12 9.1 11.1 10 10 10C8.9 10 8 9.1 8 8C8 6.9 8.9 6 10 6ZM10.72 18L12.72 20H2V17C2 14.34 7.33 13 10 13C10.58 13 11.28 13.07 12.03 13.19L11.79 13.43L10.39 14.83L10.22 15H10C7.3 15 4.2 16.29 4 17.01V18H10.72ZM22 13.55L15.55 20L11.8 16.25L13.2 14.85L15.55 17.2L20.6 12.15C20.6 12.15 22 13.55 22 13.55Z" fill="#003A68"/>
</svg>
