<svg width="24" height="24" viewBox="0 0 24 24" fill="none" xmlns="http://www.w3.org/2000/svg">
<path fill-rule="evenodd" clip-rule="evenodd" d="M12.88 1C14.3704 1 15.6028 2.08011 15.8391 3.50219C16.505 2.22452 17.8424 1.3501 19.38 1.3501C21.58 1.3501 23.37 3.1401 23.37 5.3401C23.37 7.09418 22.2321 8.58762 20.6558 9.12097C20.6988 9.19683 20.737 9.27655 20.77 9.35988C20.82 9.47988 20.85 9.59988 20.87 9.72988C21.8 9.43988 22.82 9.91988 23.17 10.8399C23.4 11.4399 23.3 12.0799 22.97 12.5799C23.13 12.7499 23.26 12.9599 23.35 13.1899C23.72 14.1599 23.24 15.2399 22.28 15.6199L22.08 15.6999C22.14 15.7999 22.2 15.9199 22.25 16.0399C22.62 17.0099 22.14 18.0899 21.18 18.4699L11.49 22.2199C9.94001 22.7999 8.21001 22.0299 7.61001 20.4799L5.83001 15.8999C5.54001 15.1399 5.57001 14.2799 5.91001 13.5499L9.26001 6.37988L11.1 7.32988C11.65 7.60988 11.98 8.21988 11.9 8.83988L11.66 10.8699L17.2482 8.71157C16.9571 8.52684 16.6914 8.30547 16.4577 8.054L12.73 9.5001L12.8 8.9501C12.89 8.1701 12.59 7.4101 12.02 6.8901L12.0415 6.8818C10.7911 6.52003 9.88 5.3688 9.88 4C9.88 2.34 11.22 1 12.88 1ZM12.88 2.5C13.7 2.5 14.38 3.17 14.38 4C14.38 4.83 13.7 5.5 12.88 5.5C12.05 5.5 11.38 4.83 11.38 4C11.38 3.17 12.05 2.5 12.88 2.5ZM21.91 5.3401C21.91 3.9501 20.77 2.8101 19.38 2.8101C17.99 2.8101 16.85 3.9501 16.85 5.3401C16.85 6.7301 17.99 7.8701 19.38 7.8701C20.77 7.8701 21.91 6.7301 21.91 5.3401ZM7.15 8.78008L5.1 13.1701C4.65 14.1301 4.61 15.2401 5 16.2301L6.54 20.2301C5.08 20.6201 3.53 19.8701 2.97 18.4301L1.2 13.8501C0.910003 13.1001 0.940003 12.2401 1.28 11.5001L4.63 4.33008L6.47 5.29008C7.02 5.58008 7.35 6.18008 7.27 6.80008L7.15 8.78008ZM9.96001 8.42988L7.28001 14.1799C7.11001 14.5499 7.09001 14.9799 7.24001 15.3599L9.02001 19.9499C9.32001 20.7199 10.19 21.1099 10.96 20.8099L20.65 17.0599C20.85 16.9799 20.94 16.7699 20.86 16.5699C20.78 16.3699 20.57 16.2799 20.37 16.3599L16.28 17.9399L15.74 16.5399L21.74 14.2199C21.94 14.1399 22.03 13.9299 21.95 13.7299C21.87 13.5299 21.66 13.4399 21.46 13.5199L15.46 15.8399L14.92 14.4399L21.56 11.8699C21.76 11.7899 21.85 11.5799 21.77 11.3799C21.69 11.1799 21.48 11.0899 21.28 11.1699L14.64 13.7399L14.1 12.3399L19.14 10.3899C19.34 10.3099 19.43 10.0999 19.35 9.89988C19.27 9.69988 19.05 9.60988 18.86 9.68988L9.86001 13.1699L10.39 8.65988C10.41 8.65988 9.96001 8.42988 9.96001 8.42988Z" fill="#003A68"/>
</svg>
