<svg width="24" height="24" viewBox="0 0 24 24" fill="none" xmlns="http://www.w3.org/2000/svg">
<path fill-rule="evenodd" clip-rule="evenodd" d="M11.98 2C17.48 2 21.96 6.48 21.96 11.98C21.96 13.0127 21.8021 14.0094 21.5091 14.9473C20.5285 14.6751 19.5192 14.54 18.78 14.54C17.9461 14.54 16.7645 14.7156 15.6701 15.0646L12.1517 11.5462C13.2191 11.5923 14.3323 11.8893 15.15 12.22C14.97 11.77 14.87 11.29 14.87 10.79C14.87 10.7285 14.8794 10.6716 14.8885 10.6162C14.8927 10.5906 14.8969 10.5653 14.9 10.54C13.83 10.21 12.69 10.04 11.87 10.04C11.5369 10.04 11.148 10.0689 10.7312 10.1257L5.2354 4.6299C5.30914 4.56227 5.38401 4.49563 5.46 4.43C7.27 2.86 9.58 2 11.98 2ZM13.7518 15.9747L8.16312 10.386C8.18081 10.5181 8.18994 10.653 8.18994 10.79C8.18994 12.45 6.84994 13.79 5.18994 13.79C3.52994 13.79 2.18994 12.45 2.18994 10.79C2.18994 9.13004 3.52994 7.79004 5.18994 7.79004C5.32699 7.79004 5.46185 7.79917 5.59396 7.81686L3.90178 6.12469C2.67583 7.81268 2 9.85611 2 11.98C2 13.0147 2.15855 14.0132 2.4526 14.9527C3.43524 14.679 4.44979 14.54 5.18998 14.54C7.18998 14.54 11.19 15.54 11.19 17.54V19.79H5.7758C7.48079 21.1476 9.63791 21.96 11.98 21.96C14.1644 21.96 16.188 21.2533 17.8338 20.0567L17.5671 19.79H12.78V17.54C12.78 16.9241 13.1633 16.402 13.7518 15.9747ZM16.0671 18.29H14.28V17.55C14.3204 17.4047 14.518 17.2282 14.8249 17.0478L16.0671 18.29ZM18.8955 18.29L16.8832 16.2777C17.4945 16.1331 18.1512 16.04 18.78 16.04C19.505 16.04 20.2658 16.1635 20.952 16.3466C20.6111 17.0436 20.1914 17.6953 19.7046 18.29H18.8955ZM4.25541 18.29C3.76911 17.696 3.34981 17.045 3.00919 16.349C3.69764 16.1646 4.46193 16.04 5.18998 16.04C7.20998 16.04 9.53998 17.01 9.68997 17.54V18.29H4.25541ZM11.98 0C8.99 0 6.25 1.1 4.15 2.91C1.61 5.11 0 8.36 0 11.98C0 18.6 5.36 23.96 11.98 23.96C18.6 23.96 23.96 18.6 23.96 11.98C23.96 5.36 18.6 0 11.98 0ZM11.87 9.29004C13.53 9.29004 14.87 7.95004 14.87 6.29004C14.87 4.63004 13.53 3.29004 11.87 3.29004C10.21 3.29004 8.87 4.63004 8.87 6.29004C8.87 7.94004 10.22 9.29004 11.87 9.29004ZM11.87 4.79004C12.69 4.79004 13.37 5.46004 13.37 6.29004C13.37 7.12004 12.69 7.79004 11.87 7.79004C11.04 7.79004 10.37 7.12004 10.37 6.29004C10.37 5.46004 11.05 4.79004 11.87 4.79004ZM6.68994 10.79C6.68994 9.97004 6.01994 9.29004 5.18994 9.29004C4.35994 9.29004 3.68994 9.96004 3.68994 10.79C3.68994 11.62 4.35994 12.29 5.18994 12.29C6.01994 12.29 6.68994 11.62 6.68994 10.79ZM21.78 10.79C21.78 12.45 20.44 13.79 18.78 13.79C17.12 13.79 15.78 12.45 15.78 10.79C15.78 9.13004 17.12 7.79004 18.78 7.79004C20.44 7.79004 21.78 9.13004 21.78 10.79ZM20.28 10.79C20.28 9.97004 19.61 9.29004 18.78 9.29004C17.95 9.29004 17.28 9.96004 17.28 10.79C17.28 11.62 17.95 12.29 18.78 12.29C19.61 12.29 20.28 11.62 20.28 10.79Z" fill="#003A68"/>
</svg>
